<?xml version="1.0" encoding="UTF-8" standalone="no"?>
<svg
   height="192"
   width="192"
   viewBox="0 0 192 192"
   version="1.1"
   id="svg130"
   sodipodi:docname="nett.svg"
   inkscape:version="1.2.1 (9c6d41e410, 2022-07-14)"
   xmlns:inkscape="http://www.inkscape.org/namespaces/inkscape"
   xmlns:sodipodi="http://sodipodi.sourceforge.net/DTD/sodipodi-0.dtd"
   xmlns="http://www.w3.org/2000/svg"
   xmlns:svg="http://www.w3.org/2000/svg">
  <sodipodi:namedview
     id="namedview132"
     pagecolor="#505050"
     bordercolor="#eeeeee"
     borderopacity="1"
     inkscape:showpageshadow="0"
     inkscape:pageopacity="0"
     inkscape:pagecheckerboard="0"
     inkscape:deskcolor="#505050"
     showgrid="false"
     inkscape:zoom="4.3072917"
     inkscape:cx="58.389359"
     inkscape:cy="77.542926"
     inkscape:window-width="1920"
     inkscape:window-height="1007"
     inkscape:window-x="0"
     inkscape:window-y="0"
     inkscape:window-maximized="1"
     inkscape:current-layer="svg130" />
  <defs
     id="defs117">
    <clipPath
       id="clipShadow">
      <path
         d="M -4 28 A 24 54 3 1 1 36 28 A 24 24 3 0 0 -4 28 Z"
         fill="rgba(0,0,0,0.2)"
         id="path98" />
    </clipPath>
    <clipPath
       id="clipEye">
      <circle
         cx="16"
         cy="0"
         r="24"
         id="circle101" />
    </clipPath>
    <clipPath
       id="clipInnerEye">
      <circle
         cx="16"
         cy="16"
         r="9"
         id="circle104" />
    </clipPath>
    <linearGradient
       id="whiteAndBlack">
      <stop
         offset="50%"
         stop-color="#ffffff"
         id="stop107" />
      <stop
         offset="50%"
         stop-color="#000000"
         id="stop109" />
    </linearGradient>
    <linearGradient
       id="blackAndWhite">
      <stop
         offset="50%"
         stop-color="#000000"
         id="stop112" />
      <stop
         offset="50%"
         stop-color="#ffffff"
         id="stop114" />
    </linearGradient>
  </defs>
  <g
     id="base">
    <path
       id="neck"
       d="M 0 192 Q 0 182 10 182 Q 78 182 72 136 L 120 136 Q 114 182 182 182 Q 192 182 192 192 L 0 192 Z"
       fill="url(#whiteAndBlack)" />
    <path
       id="shirt_l"
       d="M 0 192 Q 0 182 10 182 Q 78 182 72 136 L 88 192 L 0 192 Z"
       fill="black" />
    <path
       id="shirt_r"
       d="M 192 192 Q 192 182 182 182 Q 120 182 120 136 L 104 192 L 192 192 Z"
       fill="white" />
    <path
       id="collar_l"
       d="M 64 192 L 72 136 L 88 192 L 64 192 Z"
       fill="white"
       stroke="black"
       stroke-width="0.5" />
    <path
       id="collar_r"
       d="M 128 192 L 120 136 L 104 192 L 128 192 Z"
       fill="white"
       stroke="black"
       stroke-width="0.5" />
    <path
       id="ear_l"
       d="M 0 96 Q 0 92 64 92 L 64 106 Q 0 106 0 96 Z"
       fill="white" />
    <path
       id="ear_r"
       d="M 192 96 Q 192 92 128 92 L 128 106 Q 192 106 192 96 Z"
       fill="black" />
  </g>
  <ellipse
     id="head"
     cx="96"
     cy="88"
     rx="56"
     ry="64"
     fill="url(#blackAndWhite)" />
  <ellipse
     id="eye_l"
     cx="68"
     cy="88"
     rx="15"
     ry="10"
     fill="white" />
  <ellipse
     id="eye_r"
     cx="124"
     cy="88"
     rx="15"
     ry="10"
     fill="black" />
  <path
     style="fill:#ffffff;stroke:#000000;stroke-width:0.5;stroke-linecap:butt;stroke-linejoin:miter;stroke-opacity:1;stroke-dasharray:none;fill-opacity:1"
     d="M 136.74486,43.879081 40.396614,81.721886 44.807739,36.449819 88.68682,14.162031 l 32.03869,3.018138 z"
     id="path400" />
  <path
     style="fill:#ffffff;fill-opacity:1;stroke:#000000;stroke-width:0.5;stroke-linecap:butt;stroke-linejoin:miter;stroke-dasharray:none;stroke-opacity:1"
     d="m 100.52721,15.555019 c 0,0 -37.37848,24.609431 -42.950427,40.860943 -5.571947,16.251511 -6.500604,33.199516 -6.036275,48.290208 0.464328,15.09069 9.054413,39.23579 16.019347,43.87908 6.964933,4.64329 -12.072552,-0.69649 -14.626361,-3.94679 -2.553809,-3.25031 -39.467956,-79.400249 -31.574365,-88.454663 7.893591,-9.054413 27.62757,-44.111245 47.593712,-43.879081 19.966143,0.232165 31.574369,3.250303 31.574369,3.250303 z"
     id="path3334" />
</svg>
